<?xml version="1.0" standalone="no"?><!DOCTYPE svg PUBLIC "-//W3C//DTD SVG 1.1//EN" "http://www.w3.org/Graphics/SVG/1.1/DTD/svg11.dtd"><svg t="1636439029884" class="icon" viewBox="0 0 1024 1024" version="1.1" xmlns="http://www.w3.org/2000/svg" p-id="722" xmlns:xlink="http://www.w3.org/1999/xlink" width="200" height="200"><defs><style type="text/css"></style></defs><path d="M1024 510.277818C1024 792.994909 792.994909 1024 510.277818 1024 227.560727 1024 0 792.994909 0 510.277818 0 231.005091 227.560727 0 510.277818 0 792.994909 0 1024 231.005091 1024 510.277818" fill="#FFCC34" p-id="723"></path><path d="M924.020364 510.277818a409.088 409.088 0 0 1-410.298182 410.298182 409.088 409.088 0 0 1-410.298182-410.298182 409.088 409.088 0 0 1 410.298182-410.298182c224.116364 0 410.298182 182.737455 410.298182 410.298182" fill="#333333" p-id="724"></path><path d="M244.829091 651.636364c-34.490182-34.443636-65.536-65.489455-93.090909-89.646546l75.822545-75.869091 41.378909 34.490182 3.444364-3.444364c-6.888727-27.554909-10.333091-79.313455 37.934545-127.534545 37.888-37.934545 86.202182-48.314182 127.534546-27.601455-3.444364-27.601455-3.444364-51.712 3.444364-72.424727a160.814545 160.814545 0 0 1 41.425454-68.933818c55.156364-55.156364 134.423273-58.647273 220.625455 27.554909l168.96 168.96-86.202182 86.202182-155.136-155.182546c-41.425455-41.332364-79.313455-51.665455-106.914909-24.110545-20.666182 20.666182-20.666182 48.267636-10.333091 72.424727 3.444364 6.888727 13.777455 17.221818 20.666182 24.110546l168.96 168.96-86.202182 86.202182-158.580364-158.62691c-34.443636-34.443636-72.424727-48.267636-103.424-17.221818-24.157091 24.110545-17.221818 55.156364-10.379636 72.378182 3.444364 10.379636 10.379636 17.221818 20.712727 27.601455l165.469091 165.469091-86.155636 86.202181L244.782545 651.636364z" fill="#FEFEFE" p-id="725"></path></svg>